HIERARCHY
ROOT Hips
{
	OFFSET -0.001795 -0.223333 0.028219
	CHANNELS 6 Xposition Yposition Zposition Zrotation Yrotation Xrotation 
	JOINT LeftUpLeg
	{
		OFFSET 0.069520 -0.091406 -0.006815
		CHANNELS 3 Zrotation Yrotation Xrotation
		JOINT LeftLeg
		{
			OFFSET 0.034277 -0.375199 -0.004496
			CHANNELS 3 Zrotation Yrotation Xrotation
			JOINT LeftFoot
			{
				OFFSET -0.013596 -0.397961 -0.043693
				CHANNELS 3 Zrotation Yrotation Xrotation
				JOINT LeftToe
				{
					OFFSET 0.026358 -0.055791 0.119288
					CHANNELS 3 Zrotation Yrotation Xrotation
					End Site
					{
						OFFSET 0.000000 0.000000 0.000000
					}
				}
			}
		}
	}
	JOINT RightUpLeg
	{
		OFFSET -0.067670 -0.090522 -0.004320
		CHANNELS 3 Zrotation Yrotation Xrotation
		JOINT RightLeg
		{
			OFFSET -0.038290 -0.382569 -0.008850
			CHANNELS 3 Zrotation Yrotation Xrotation
			JOINT RightFoot
			{
				OFFSET 0.015774 -0.398415 -0.042312
				CHANNELS 3 Zrotation Yrotation Xrotation
				JOINT RightToe
				{
					OFFSET -0.025372 -0.048144 0.123348
					CHANNELS 3 Zrotation Yrotation Xrotation
					End Site
					{
						OFFSET 0.000000 0.000000 0.000000
					}
				}
			}
		}
	}
	JOINT Spine
	{
		OFFSET -0.002533 0.108963 -0.026696
		CHANNELS 3 Zrotation Yrotation Xrotation
		JOINT Spine1
		{
			OFFSET 0.005487 0.135180 0.001092
			CHANNELS 3 Zrotation Yrotation Xrotation
			JOINT Spine2
			{
				OFFSET 0.001457 0.052922 0.025425
				CHANNELS 3 Zrotation Yrotation Xrotation
				JOINT Neck
				{
					OFFSET -0.002778 0.213870 -0.042857
					CHANNELS 3 Zrotation Yrotation Xrotation
					JOINT Head
					{
						OFFSET 0.005152 0.064970 0.051349
						CHANNELS 3 Zrotation Yrotation Xrotation
						End Site
						{
							OFFSET 0.000000 0.000000 0.000000
						}
					}
				}
				JOINT LeftShoulder
				{
					OFFSET 0.078845 0.121749 -0.034090
					CHANNELS 3 Zrotation Yrotation Xrotation
					JOINT LeftArm
					{
						OFFSET 0.090977 0.030469 -0.008868
						CHANNELS 3 Zrotation Yrotation Xrotation
						JOINT LeftForeArm
						{
							OFFSET 0.259612 -0.012772 -0.027456
							CHANNELS 3 Zrotation Yrotation Xrotation
							JOINT LeftHand
							{
								OFFSET 0.249234 0.008986 -0.001171
								CHANNELS 3 Zrotation Yrotation Xrotation
								End Site
								{
									OFFSET 0.000000 0.000000 0.000000
								}
							}
						}
					}
				}
				JOINT RightShoulder
				{
					OFFSET -0.081759 0.118833 -0.038615
					CHANNELS 3 Zrotation Yrotation Xrotation
					JOINT RightArm
					{
						OFFSET -0.096012 0.032551 -0.009143
						CHANNELS 3 Zrotation Yrotation Xrotation
						JOINT RightForeArm
						{
							OFFSET -0.253742 -0.013329 -0.021401
							CHANNELS 3 Zrotation Yrotation Xrotation
							JOINT RightHand
							{
								OFFSET -0.255298 0.007772 -0.005559
								CHANNELS 3 Zrotation Yrotation Xrotation
								End Site
								{
									OFFSET 0.000000 0.000000 0.000000
								}
							}
						}
					}
				}
			}
		}
	}
}
MOTION
Frames: 16
Frame Time: 0.050000
0.036152 0.940483 -0.078735 -6.338860 -8.401589 12.196649 7.694273 -0.232801 -26.121845 -2.553592 0.519966 19.007111 3.802641 8.157659 0.629705 0.000000 0.000000 0.000000 -1.156272 3.213460 -28.551728 1.727732 0.667660 18.991921 -4.903551 -14.702139 8.008879 0.000000 0.000000 0.000000 -2.640549 0.173770 24.876407 -1.243208 0.583965 -1.763163 2.909849 1.134813 8.037219 5.856869 -2.466462 -18.405739 0.000000 0.000000 0.000000 -11.029611 -11.332015 4.988031 -45.970314 -29.157914 5.352433 0.687750 -46.218667 2.442084 0.000000 0.000000 0.000000 4.074104 27.548651 10.492350 40.742496 63.622000 18.230077 -5.254823 50.181832 -0.357913 0.000000 0.000000 0.000000 
0.039834 0.941642 -0.078597 -5.963857 -9.190594 12.702940 6.870644 -0.367302 -25.765020 -2.262622 0.437515 17.644212 3.763625 8.101049 0.833948 0.000000 0.000000 0.000000 -1.450814 3.246341 -28.844507 1.472261 0.744427 18.679423 -4.825656 -14.659081 8.103001 0.000000 0.000000 0.000000 -2.472511 0.170396 24.365950 -1.101665 0.518627 -2.045414 2.922214 1.346116 7.947734 5.991834 -2.432807 -19.425442 0.000000 0.000000 0.000000 -11.117889 -11.273029 5.003122 -45.494908 -29.014249 5.220139 -0.000331 -45.395755 2.688074 0.000000 0.000000 0.000000 4.149053 27.500321 10.476146 41.873894 62.952649 18.567749 -4.176466 51.452267 0.118379 0.000000 0.000000 0.000000 
0.043882 0.942831 -0.078312 -5.393560 -10.081519 13.061491 5.924609 -0.519692 -25.437856 -2.357222 0.457319 16.000454 3.736569 8.094220 1.247370 0.000000 0.000000 0.000000 -2.166928 3.240315 -29.380788 1.246870 0.839897 18.784955 -4.601769 -14.379491 8.379396 0.000000 0.000000 0.000000 -2.192005 0.145227 24.030404 -1.227211 0.566677 -2.467476 2.954166 1.340716 8.065586 6.008036 -2.347769 -20.639536 0.000000 0.000000 0.000000 -11.105203 -11.505698 5.206486 -44.708861 -29.261388 5.169545 0.012973 -44.575331 2.668458 0.000000 0.000000 0.000000 3.896140 26.792969 10.088169 44.246704 61.825258 19.312755 -3.657202 52.174619 0.301344 0.000000 0.000000 0.000000 
0.047966 0.943896 -0.078064 -4.974631 -11.114121 13.538498 5.219738 -0.609603 -25.243144 -2.774959 0.570468 14.723017 3.948174 8.534385 1.433087 0.000000 0.000000 0.000000 -2.716235 3.271594 -29.867968 1.055461 0.907407 18.546268 -4.258102 -13.861149 8.546367 0.000000 0.000000 0.000000 -2.079175 0.167901 23.550265 -1.187476 0.541410 -2.879008 3.024377 1.211195 8.238610 5.796143 -2.155885 -21.966126 0.000000 0.000000 0.000000 -11.181998 -11.763724 5.471040 -43.235881 -29.588614 5.006639 -0.155962 -43.808705 2.737415 0.000000 0.000000 0.000000 4.589300 26.651923 10.042133 44.070778 59.666427 18.075061 -2.971944 52.231285 0.516815 0.000000 0.000000 0.000000 
0.051857 0.944897 -0.077711 -4.795574 -12.330156 14.009175 4.697574 -0.646465 -25.045989 -2.932775 0.625292 13.829033 4.041627 8.687050 1.349040 0.000000 0.000000 0.000000 -2.917045 3.383104 -30.318448 0.755828 0.979079 17.954374 -4.109801 -13.707133 8.522654 0.000000 0.000000 0.000000 -1.944393 0.191941 23.090172 -1.096744 0.492300 -3.300336 3.249340 1.031307 8.448611 5.575382 -1.990834 -23.323037 0.000000 0.000000 0.000000 -11.486266 -11.752058 5.673914 -42.568474 -30.351501 5.131484 0.374019 -43.407705 2.605303 0.000000 0.000000 0.000000 4.969079 25.906952 9.653642 45.885648 57.197734 17.741238 -2.154832 51.556361 0.734020 0.000000 0.000000 0.000000 
0.055283 0.946182 -0.076981 -4.749654 -14.508790 14.673715 4.244768 -0.607265 -24.712875 -2.811286 0.646703 13.215434 4.207782 8.953413 1.085262 0.000000 0.000000 0.000000 -2.913710 3.645337 -30.983200 0.443694 1.080440 17.414867 -3.445342 -12.536571 8.235003 0.000000 0.000000 0.000000 -2.271448 0.358140 21.955614 -0.969539 0.430141 -3.281935 3.704857 0.941259 8.629416 4.976080 -1.701346 -24.666605 0.000000 0.000000 0.000000 -11.119963 -11.561574 5.788225 -42.746237 -30.324881 5.169338 0.552486 -44.116252 2.753280 0.000000 0.000000 0.000000 6.430069 25.651646 9.489572 45.643730 53.625775 15.863359 0.123516 50.854917 1.511019 0.000000 0.000000 0.000000 
0.057954 0.947487 -0.075166 -4.940404 -16.513661 15.437675 3.808263 -0.578945 -24.611549 -2.595794 0.631661 12.615018 4.294154 9.087637 1.079556 0.000000 0.000000 0.000000 -2.588049 3.915130 -31.345929 -0.063326 1.167139 16.468337 -3.022308 -11.838339 8.019401 0.000000 0.000000 0.000000 -2.456441 0.450415 20.630810 -0.642099 0.292788 -2.965380 4.039546 0.373652 8.329673 4.453672 -1.515742 -25.801534 0.000000 0.000000 0.000000 -11.605122 -10.655724 5.711050 -42.495946 -29.727757 4.889000 0.050300 -46.067125 3.371745 0.000000 0.000000 0.000000 7.585211 24.685546 8.855911 46.588398 48.846518 14.111293 4.140372 50.292057 2.934781 0.000000 0.000000 0.000000 
0.059681 0.948975 -0.071525 -5.168432 -18.851935 15.963759 3.451971 -0.530647 -23.744464 -2.304199 0.590518 11.692534 4.431048 9.325744 0.851817 0.000000 0.000000 0.000000 -2.574033 4.065347 -31.196654 0.135634 1.113118 15.710782 -2.568953 -11.149478 8.013710 0.000000 0.000000 0.000000 -2.790730 0.590885 19.717621 -0.171389 0.082230 -3.316520 4.302686 -0.415385 8.677565 3.138228 -1.063246 -26.737322 0.000000 0.000000 0.000000 -11.835626 -9.880519 5.743190 -42.558768 -28.816550 4.525579 -1.019618 -48.227951 4.361992 0.000000 0.000000 0.000000 9.867675 23.191210 7.855219 46.710717 42.526860 11.524302 8.826117 49.984964 4.529795 0.000000 0.000000 0.000000 
0.059635 0.950608 -0.066103 -5.349765 -21.323783 16.106656 2.983590 -0.532344 -22.231819 -2.032900 0.547526 10.675049 4.844048 10.166446 1.143783 0.000000 0.000000 0.000000 -2.063143 4.218120 -30.639121 0.129805 1.114989 15.112267 -2.473318 -10.879141 7.358083 0.000000 0.000000 0.000000 -2.976257 0.693498 19.008381 0.043325 -0.007080 -3.017490 4.548570 -1.767512 8.742194 2.638676 -1.143826 -26.670979 0.000000 0.000000 0.000000 -12.578096 -8.223959 5.500478 -42.621718 -28.156413 4.220951 -2.237472 -50.689798 5.677273 0.000000 0.000000 0.000000 10.550601 21.860444 6.656162 48.613472 36.177910 9.489950 10.795336 48.990508 4.629226 0.000000 0.000000 0.000000 
0.057334 0.951748 -0.058946 -5.773053 -24.864086 15.837481 2.359239 -0.546815 -19.619685 -0.759386 0.292670 9.820584 4.913961 10.349735 0.653290 0.000000 0.000000 0.000000 -2.082338 4.340117 -30.112770 0.827392 1.116783 15.555739 -2.051436 -10.236225 7.300852 0.000000 0.000000 0.000000 -3.267525 0.877085 18.771317 0.398388 -0.166335 -3.040601 4.416659 -2.725102 9.333051 2.012396 -1.172464 -26.899988 0.000000 0.000000 0.000000 -11.655810 -6.557490 4.930554 -44.011712 -27.113791 4.179552 -3.949896 -53.452026 7.487007 0.000000 0.000000 0.000000 12.341762 19.348484 4.715735 49.823795 29.228345 7.085176 13.109932 47.562082 4.741142 0.000000 0.000000 0.000000 
0.051996 0.952094 -0.051031 -6.257030 -27.933324 15.761160 2.176669 -0.523303 -17.128490 -0.333724 0.223470 8.909384 5.338508 11.360293 0.373641 0.000000 0.000000 0.000000 -1.578630 4.528058 -29.770206 1.008191 1.240746 16.207149 -1.351067 -9.060608 7.364721 0.000000 0.000000 0.000000 -3.483594 1.005799 18.374693 1.036257 -0.419266 -2.707672 4.394162 -4.378970 9.624141 2.077662 -1.606767 -26.301609 0.000000 0.000000 0.000000 -12.597459 -4.749261 4.706593 -43.596518 -26.067417 3.567738 -5.266520 -56.668258 9.474743 0.000000 0.000000 0.000000 12.494000 17.086456 2.915886 50.271549 22.689851 4.573796 15.059531 46.250713 4.645351 0.000000 0.000000 0.000000 
0.043466 0.951755 -0.043121 -6.681005 -31.759675 15.611644 1.711392 -0.520183 -14.713992 0.836829 0.011875 8.468054 5.862459 12.628139 0.288297 0.000000 0.000000 0.000000 -1.008338 4.985586 -30.278587 1.138563 1.700152 18.890074 -1.308788 -8.973300 6.906954 0.000000 0.000000 0.000000 -3.541277 1.149913 18.345846 1.155356 -0.449763 -2.312012 4.068095 -5.271889 9.935913 1.729159 -1.777811 -26.090164 0.000000 0.000000 0.000000 -11.759959 -4.314816 4.722687 -44.234450 -25.445038 3.595946 -3.754855 -60.988781 10.196313 0.000000 0.000000 0.000000 13.761852 14.705002 0.912949 48.867059 16.492241 2.341384 16.643757 45.913421 4.639490 0.000000 0.000000 0.000000 
0.031373 0.950057 -0.035685 -7.658834 -34.835957 15.919802 2.290416 -0.388396 -12.242820 1.361824 -0.085631 7.559473 6.212403 13.763660 -0.385935 0.000000 0.000000 0.000000 -1.157061 5.455636 -31.365440 2.163994 2.101593 22.035721 -1.851979 -10.632399 7.370952 0.000000 0.000000 0.000000 -2.905888 1.101271 18.362196 1.258259 -0.462746 -1.965651 3.843285 -7.026194 10.157351 1.047744 -1.827508 -25.953381 0.000000 0.000000 0.000000 -11.935909 -3.206701 4.704785 -44.242216 -25.519855 3.651646 -0.304747 -65.710063 9.988581 0.000000 0.000000 0.000000 13.563666 13.386333 -0.414832 47.787347 11.920042 0.732907 18.367696 44.419730 4.527254 0.000000 0.000000 0.000000 
0.015373 0.947998 -0.028061 -8.683642 -38.751381 16.357896 2.179130 -0.331960 -9.555091 2.552841 -0.289946 7.334263 5.957686 13.763287 -1.152972 0.000000 0.000000 0.000000 -1.633294 6.385786 -33.762167 4.061493 2.524502 25.794765 -0.980459 -8.805635 6.898234 0.000000 0.000000 0.000000 -2.810668 1.226117 18.478485 1.495021 -0.490383 -1.325214 3.054933 -6.771436 10.034878 1.015231 -1.952008 -26.583152 0.000000 0.000000 0.000000 -11.734793 -3.968013 5.297507 -42.900471 -25.806330 3.515892 4.447481 -69.765827 7.983519 0.000000 0.000000 0.000000 15.337287 12.334337 -1.823264 45.865769 7.307831 -0.486667 20.626440 43.306417 5.088441 0.000000 0.000000 0.000000 
-0.005635 0.945497 -0.019255 -9.818516 -41.919494 16.220894 2.848534 -0.156374 -6.604771 2.506220 -0.177074 8.135144 5.972210 14.356480 -1.621321 0.000000 0.000000 0.000000 -1.355617 6.845814 -34.215026 6.162953 2.462271 26.969284 -1.814820 -10.670509 6.757371 0.000000 0.000000 0.000000 -2.944248 1.460492 19.132829 1.430141 -0.393308 -0.700564 3.894246 -8.731615 9.860197 -0.175576 -1.749192 -26.506405 0.000000 0.000000 0.000000 -12.909087 -3.356213 5.831170 -40.923707 -25.935293 3.118689 12.793616 -74.010972 3.086862 0.000000 0.000000 0.000000 14.824803 12.297882 -2.527937 45.447513 4.843299 -1.216653 22.409062 41.888195 4.990228 0.000000 0.000000 0.000000 
-0.032271 0.942527 -0.007946 -10.368883 -44.257990 16.471377 2.733203 -0.057277 -3.794518 4.222163 -0.514835 8.225851 4.437819 11.882671 -3.503612 0.000000 0.000000 0.000000 -3.770306 7.004235 -35.577477 8.842919 1.792761 25.673234 -4.344669 -15.662948 6.520535 0.000000 0.000000 0.000000 -3.182712 1.523197 18.579042 2.157459 -0.590619 0.013265 4.004925 -10.146266 9.594698 -1.776734 -1.252215 -27.517694 0.000000 0.000000 0.000000 -13.845022 -3.206962 6.498115 -39.882623 -25.690889 2.672053 17.822953 -78.050094 -0.046939 0.000000 0.000000 0.000000 14.992213 11.623952 -3.471383 43.647552 0.060864 -2.511427 26.038235 43.331466 6.084416 0.000000 0.000000 0.000000 
